<?xml version="1.0" encoding="UTF-8" standalone="no"?>
<!-- Created with Inkscape (http://www.inkscape.org/) -->

<svg
   width="97.23996mm"
   height="133.46085mm"
   viewBox="0 0 97.23996 133.46084"
   version="1.1"
   id="svg1"
   sodipodi:docname="WCAN Favicon.svg"
   inkscape:export-filename="WCAN Logo - High Rez - Dark Mode.png"
   inkscape:export-xdpi="400.01001"
   inkscape:export-ydpi="400.01001"
   inkscape:version="1.4.2 (f4327f4, 2025-05-13)"
   xmlns:inkscape="http://www.inkscape.org/namespaces/inkscape"
   xmlns:sodipodi="http://sodipodi.sourceforge.net/DTD/sodipodi-0.dtd"
   xmlns="http://www.w3.org/2000/svg"
   xmlns:svg="http://www.w3.org/2000/svg">
  <sodipodi:namedview
     id="namedview1"
     pagecolor="#ffffff"
     bordercolor="#000000"
     borderopacity="0.25"
     inkscape:showpageshadow="2"
     inkscape:pageopacity="0.0"
     inkscape:pagecheckerboard="0"
     inkscape:deskcolor="#d1d1d1"
     inkscape:document-units="mm"
     inkscape:zoom="0.31516058"
     inkscape:cx="180.86018"
     inkscape:cy="174.51421"
     inkscape:window-width="1536"
     inkscape:window-height="890"
     inkscape:window-x="-6"
     inkscape:window-y="-6"
     inkscape:window-maximized="1"
     inkscape:current-layer="svg1" />
  <defs
     id="defs1" />
  <g
     id="layer1"
     transform="translate(335.03128,-24.943708)">
    <path
       style="fill:#0084bf;fill-opacity:1;fill-rule:evenodd;stroke:none;stroke-width:0.264583"
       d="m -320.48932,124.63676 -2.40655,12.15211 c 2.58555,27.53617 38.53472,24.10533 56.90211,15.09567 -10.79967,2.16789 -25.43789,1.37233 -30.38028,-9.08922 -7.65722,-13.35539 -6.43406,-23.10094 -1.45189,-37.54028 1.81983,-5.25066 4.53467,-11.436111 7.18983,-16.318831 1.42206,-2.5955 8.37323,-13.62389 7.83622,-15.55311 -2.76455,-1.32261 -9.27816,8.42294 -11.06816,10.59083 -3.27172,3.97778 -6.64289,8.31356 -9.87483,12.57972 -7.01084,9.258281 -11.96317,17.512171 -16.74645,28.083111 z"
       id="path1" />
    <path
       style="fill:#3b99c9;fill-opacity:1;fill-rule:evenodd;stroke:none;stroke-width:0.264583"
       d="m -297.32871,65.795485 13.86256,-1.253001 -2.09828,5.012005 c 0.4475,0.86516 6.93128,4.27611 6.94122,4.27611 l 3.29161,-4.33578 5.67828,13.56422 c 3.05294,-7.08044 5.27056,-6.13572 4.68383,-14.64816 -0.62649,-9.13895 -1.55133,-8.114672 3.19217,-15.175226 6.38433,-9.496945 8.43289,-17.005001 10.10356,-28.291945 -9.69584,4.624167 -16.77628,12.400722 -22.52417,21.181666 -5.40978,8.273779 -3.46067,4.862834 -12.72889,8.631779 -5.9965,2.446332 -8.5025,4.226388 -10.40189,11.038332 z"
       id="path2" />
    <path
       style="fill:#0074a1;fill-opacity:1;fill-rule:evenodd;stroke:none;stroke-width:0.264583"
       d="m -322.89587,136.78887 2.40655,-12.15211 c -8.70139,-15.13544 -8.93011,-33.154771 -1.99883,-48.966441 4.13689,-9.44722 13.46477,-18.238112 22.32528,-22.882166 1.78005,-0.934779 10.48144,-4.017556 10.48144,-4.305945 -28.73945,0.228722 -64.48972,47.713441 -33.21444,88.306662 z"
       id="path3" />
    <path
       style="fill:#1e6591;fill-opacity:1;fill-rule:evenodd;stroke:none;stroke-width:0.264583"
       d="m -296.37404,142.79532 c 4.94239,10.46155 19.58061,11.25711 30.38028,9.08922 11.78416,-3.24189 26.74061,-24.51306 28.20244,-37.053 -3.3115,5.92689 -3.759,9.5765 -8.47267,15.67244 -7.339,9.49695 -19.04361,16.04039 -31.20566,16.93539 -9.129,0.67622 -11.66484,0.0298 -18.90439,-4.64405 z"
       id="path4" />
    <path
       style="fill:#e6e9ed;fill-opacity:1;fill-rule:evenodd;stroke:none;stroke-width:0.264583"
       d="m -258.49565,111.64932 1.432,-6.36444 c 0,-0.01 0,-0.0199 0,-0.0298 0.0696,-0.38784 -0.18895,-0.76573 -0.57678,-0.83534 -0.0398,0 -0.0796,-0.01 -0.11933,-0.01 h -6.58323 l 1.28284,-2.22755 c 0.0298,-0.0497 0.0497,-0.0994 0.0597,-0.15911 0.0199,-0.14917 -0.0199,-0.29834 -0.10939,-0.40773 l -5.9965,-6.891501 1.7005,-0.45744 c 0.18894,-0.0497 0.32817,-0.20884 0.358,-0.38784 0.01,-0.0497 0.01,-0.10938 0,-0.15911 l -0.6265,-4.49489 3.86839,1.57123 c 0.0298,0.01 0.0696,0.0199 0.0994,0.0199 0.18894,0.0398 0.38783,-0.0497 0.49722,-0.20884 l 1.10383,-1.7005 2.54578,3.92806 c 0.0796,0.10939 0.18894,0.18894 0.32817,0.20883 0.2685,0.0497 0.51711,-0.12928 0.56683,-0.39777 0,-0.0298 0.01,-0.0597 0.01,-0.0895 l -0.13918,-8.08489 2.17784,1.83973 c 0.0696,0.0497 0.14916,0.0895 0.23866,0.10939 0.17901,0.0298 0.36795,-0.0497 0.47734,-0.19889 l 3.32144,-4.40539 1.611,5.2805 c 0.0497,0.179 0.19889,0.30827 0.38783,0.33811 0.0796,0.0199 0.16906,0.01 0.24861,-0.0199 l 2.67506,-0.97456 -2.89383,7.54784 c -0.01,0.0298 -0.0199,0.0597 -0.0199,0.0895 -0.0497,0.26849 0.12928,0.51711 0.39778,0.56683 0.12928,0.0199 0.2685,-0.01 0.37789,-0.0895 l 3.73911,-2.81428 0.45744,1.969 c 0.0398,0.18895 0.19889,0.33811 0.38783,0.36794 0.0298,0.01 0.0696,0.01 0.0995,0.01 l 4.17666,-0.13922 -2.12811,3.99767 c -0.0298,0.0497 -0.0398,0.0994 -0.0497,0.14916 -0.0298,0.18895 0.0398,0.37789 0.19889,0.48728 l 1.44195,1.01433 -7.98539,4.425281 c -0.12928,0.0696 -0.21878,0.19889 -0.24861,0.34806 -0.01,0.0497 -0.01,0.10939 0,0.16905 l 0.4475,2.52589 -6.18545,-2.24744 c -0.0398,-0.01 -0.0795,-0.0199 -0.11933,-0.0298 -0.38783,-0.0696 -0.76572,0.19889 -0.82539,0.58672 -0.01,0.01 -0.01,0.0199 -0.01,0.0298 l -0.79556,6.47383 z"
       id="path5"
       inkscape:export-filename="WCAN Rocket Dark Mode.png"
       inkscape:export-xdpi="267.48001"
       inkscape:export-ydpi="267.48001" />
  </g>
</svg>
